<svg width="75" height="75" viewBox="0 0 75 75" fill="none" xmlns="http://www.w3.org/2000/svg">
<path fill-rule="evenodd" clip-rule="evenodd" d="M37.6092 0.0132463C44.7821 0.0888996 52.2318 0.460996 58.2352 4.42196C64.2177 8.36906 67.5479 15.0804 70.4411 21.6751C73.3062 28.2056 75.7068 35.1144 74.8088 42.1984C73.9035 49.3401 70.1745 55.7453 65.4395 61.132C60.7422 66.4759 54.7666 70.4162 48.0421 72.6495C41.1621 74.9345 33.7794 75.8949 26.7929 73.9671C19.735 72.0197 13.6699 67.4978 8.94463 61.8614C4.25646 56.2693 1.03005 49.5054 0.186591 42.2308C-0.643912 35.0679 1.40219 28.0469 4.25743 21.4355C7.1535 14.7296 10.5882 7.91231 16.7042 3.98392C22.8092 0.0625453 30.3723 -0.0630832 37.6092 0.0132463Z" fill="black"/>
</svg>
