<svg width="75" height="73" viewBox="0 0 75 73" fill="none" xmlns="http://www.w3.org/2000/svg">
<path fill-rule="evenodd" clip-rule="evenodd" d="M35.6075 0.00103071C41.5639 -0.0703802 46.6972 3.58354 51.9127 6.40277C57.2194 9.27132 62.6036 12.0252 66.4057 16.6491C70.5758 21.7206 73.9127 27.5963 74.6602 34.067C75.4474 40.8825 75.1458 48.6121 70.7109 53.9198C66.3166 59.1789 57.8599 58.2344 51.7606 61.4734C45.8804 64.5961 42.1779 71.3342 35.6075 72.5615C28.7375 73.8446 21.1143 72.2831 15.4578 68.2541C9.93129 64.3177 7.94823 57.3467 5.48281 51.1041C3.31147 45.6062 2.57583 39.9307 1.95608 34.067C1.27138 27.5888 -1.89627 20.3712 1.65246 14.8637C5.21573 9.3336 13.436 9.45892 19.5311 6.79099C24.9514 4.41844 29.6711 0.0722014 35.6075 0.00103071Z" fill="#C40E3A"/>
</svg>
