<svg width="81" height="80" viewBox="0 0 81 80" fill="none" xmlns="http://www.w3.org/2000/svg">
<path fill-rule="evenodd" clip-rule="evenodd" d="M38.4561 0.00112954C44.889 -0.077129 50.433 3.92716 56.0657 7.01673C61.7969 10.1604 67.6119 13.1783 71.7181 18.2456C76.2219 23.8034 79.8258 30.2425 80.633 37.3337C81.4832 44.8027 81.1574 53.2735 76.3677 59.0902C71.6219 64.8536 62.4887 63.8185 55.9015 67.3681C49.5508 70.7902 45.5521 78.1745 38.4561 79.5194C31.0365 80.9256 22.8034 79.2144 16.6944 74.799C10.7258 70.4851 8.58409 62.8457 5.92144 56.0045C3.57639 49.9793 2.7819 43.7597 2.11257 37.3337C1.37309 30.2343 -2.04797 22.3247 1.78466 16.289C5.63298 10.2286 14.5109 10.3659 21.0936 7.44218C26.9475 4.84212 32.0448 0.0791249 38.4561 0.00112954Z" fill="#C40E3A"/>
</svg>
