<svg width="81" height="82" viewBox="0 0 81 82" fill="none" xmlns="http://www.w3.org/2000/svg">
<path fill-rule="evenodd" clip-rule="evenodd" d="M38.4561 2.00113C44.889 1.92287 50.433 5.92717 56.0657 9.01673C61.7969 12.1604 67.6119 15.1783 71.7181 20.2456C76.2219 25.8034 79.8258 32.2425 80.633 39.3337C81.4832 46.8027 81.1574 55.2735 76.3677 61.0902C71.6219 66.8536 62.4887 65.8185 55.9015 69.3681C49.5508 72.7902 45.5521 80.1745 38.4561 81.5194C31.0365 82.9256 22.8034 81.2144 16.6944 76.799C10.7258 72.4851 8.58409 64.8457 5.92144 58.0045C3.57639 51.9793 2.7819 45.7597 2.11257 39.3337C1.37309 32.2343 -2.04797 24.3247 1.78466 18.289C5.63298 12.2286 14.5109 12.3659 21.0936 9.44218C26.9475 6.84212 32.0448 2.07912 38.4561 2.00113Z" fill="#C40E3A"/>
<path fill-rule="evenodd" clip-rule="evenodd" d="M38.6208 7.92904C51.892 7.34938 67.3478 -6.16859 76.6994 3.43637C86.0596 13.05 72.6 28.6835 71.9941 42.2063C71.4449 54.4657 82.1749 69.2049 73.3771 77.5935C64.5417 86.018 50.7254 73.9583 38.6208 74.0275C26.3666 74.0976 12.3782 86.5631 3.47207 77.9931C-5.39535 69.4603 5.51644 54.6288 5.55174 42.2063C5.58682 29.8592 -4.82319 15.4344 3.67484 6.62594C12.1663 -2.17579 26.5143 8.45783 38.6208 7.92904Z" fill="black"/>
</svg>
