<svg width="40" height="40" viewBox="0 0 40 40" fill="none" xmlns="http://www.w3.org/2000/svg">
<rect x="0.5" y="0.5" width="39" height="39" rx="19.5" stroke="black"/>
<path d="M20.9555 12.25C23.0055 12.25 24.5721 12.5667 25.6555 13.2C26.7388 13.8167 27.2805 14.75 27.2805 16C27.2805 16.7833 27.1138 17.4167 26.7805 17.9C26.4638 18.3667 26.0638 18.7667 25.5805 19.1C25.1138 19.4167 24.5971 19.6917 24.0305 19.925C23.4638 20.1583 22.9388 20.4167 22.4555 20.7C21.9888 20.9667 21.5888 21.3 21.2555 21.7C20.9388 22.1 20.7805 22.625 20.7805 23.275H16.7555C16.7555 22.5083 16.8721 21.8917 17.1055 21.425C17.3555 20.9583 17.6221 20.5667 17.9055 20.25C18.1888 19.9333 18.4471 19.6583 18.6805 19.425C18.9305 19.1917 19.0555 18.9167 19.0555 18.6C19.0555 18.3667 18.9721 18.2083 18.8055 18.125C18.6555 18.025 18.4888 17.975 18.3055 17.975C17.9388 17.975 17.5721 18.0417 17.2055 18.175C16.8555 18.3083 16.5388 18.45 16.2555 18.6C15.9221 18.7833 15.5888 18.9833 15.2555 19.2L13.4805 13.625C13.9638 13.3917 14.5055 13.1917 15.1055 13.025C15.7221 12.8417 16.3555 12.7 17.0055 12.6C17.6721 12.4833 18.3388 12.4 19.0055 12.35C19.6721 12.2833 20.3221 12.25 20.9555 12.25ZM18.7805 24.075C19.5471 24.075 20.1638 24.325 20.6305 24.825C21.1138 25.325 21.3555 25.9333 21.3555 26.65C21.3555 27.3667 21.1138 27.9833 20.6305 28.5C20.1638 29 19.5471 29.25 18.7805 29.25C18.0138 29.25 17.3888 29 16.9055 28.5C16.4388 27.9833 16.2055 27.3667 16.2055 26.65C16.2055 25.9333 16.4388 25.325 16.9055 24.825C17.3888 24.325 18.0138 24.075 18.7805 24.075Z" fill="black"/>
</svg>
